<svg width="416.039990234375px" height="124.439990234375px" xmlns="http://www.w3.org/2000/svg" viewBox="41.980004882812494 12.780004882812499 416.039990234375 124.439990234375" style="background: none;" preserveAspectRatio="xMidYMid"><defs><filter id="editing-extrusion" x="-100%" y="-100%" width="300%" height="300%"><feFlood result="color1" flood-color="#444"></feFlood><feConvolveMatrix order="8,8" divisor="1" kernelMatrix="1 0 0 0 0 0 0 0 0 1 0 0 0 0 0 0 0 0 1 0 0 0 0 0 0 0 0 1 0 0 0 0 0 0 0 0 1 0 0 0 0 0 0 0 0 1 0 0 0 0 0 0 0 0 1 0 0 0 0 0 0 0 0 1" in="SourceAlpha" result="extrude"></feConvolveMatrix><feComposite in="color1" in2="extrude" result="comp-extrude" operator="in"></feComposite><feOffset dx="4" dy="4" in="comp-extrude" result="offset-extrude"></feOffset><feMerge><feMergeNode in="offset-extrude"></feMergeNode><feMergeNode in="SourceGraphic"></feMergeNode></feMerge></filter></defs><g filter="url(#editing-extrusion)"><g transform="translate(105.70999205112457, 97.39999961853027)"><path d="M34.50-13.25L34.50-13.25L34.50-13.25Q36.16-12.03 36.16-9.44L36.16-9.44L36.16-9.44Q36.16-6.85 35.04-5.02L35.04-5.02L35.04-5.02Q33.92-3.20 31.74-1.79L31.74-1.79L31.74-1.79Q27.07 1.22 18.91 1.22L18.91 1.22L18.91 1.22Q10.75 1.22 6.30-3.04L6.30-3.04L6.30-3.04Q1.86-7.30 1.86-14.85L1.86-14.85L1.86-14.85Q1.86-25.54 7.42-33.66L7.42-33.66L7.42-33.66Q11.65-39.68 19.20-42.24L19.20-42.24L19.20-42.24Q23.10-43.52 26.94-43.52L26.94-43.52L26.94-43.52Q30.78-43.52 33.15-43.01L33.15-43.01L33.15-43.01Q35.52-42.50 37.31-41.47L37.31-41.47L37.31-41.47Q41.22-39.23 41.22-35.65L41.22-35.65L41.22-35.65Q41.22-32.38 38.14-29.95L38.14-29.95L38.14-29.95Q35.33-27.78 33.02-27.78L33.02-27.78L33.02-27.78Q30.72-27.78 29.76-28.10L29.76-28.10L29.76-28.10Q30.02-30.40 30.02-31.90L30.02-31.90L30.02-31.90Q30.02-33.41 29.95-34.50L29.95-34.50L29.95-34.50Q29.89-35.58 29.57-36.61L29.57-36.61L29.57-36.61Q28.93-38.98 26.98-38.98L26.98-38.98L26.98-38.98Q25.02-38.98 23.07-37.15L23.07-37.15L23.07-37.15Q21.12-35.33 19.46-32.26L19.46-32.26L19.46-32.26Q15.68-25.28 15.68-17.02L15.68-17.02L15.68-17.02Q15.68-13.06 17.92-10.78L17.92-10.78L17.92-10.78Q20.16-8.51 24.96-8.51L24.96-8.51L24.96-8.51Q28.54-8.51 31.94-10.88L31.94-10.88L31.94-10.88Q33.41-11.90 34.50-13.25ZM67.39-10.82L67.39-10.82L67.39-10.82Q68.99-9.73 68.99-7.33L68.99-7.33L68.99-7.33Q68.99-4.93 67.78-3.39L67.78-3.39L67.78-3.39Q66.56-1.86 64.58-0.83L64.58-0.83L64.58-0.83Q60.48 1.28 56.06 1.28L56.06 1.28L56.06 1.28Q51.65 1.28 49.06 0.32L49.06 0.32L49.06 0.32Q46.46-0.64 44.74-2.43L44.74-2.43L44.74-2.43Q41.34-5.82 41.34-12.03L41.34-12.03L41.34-12.03Q41.34-21.70 46.59-27.58L46.59-27.58L46.59-27.58Q52.22-33.92 62.02-33.92L62.02-33.92L62.02-33.92Q68.10-33.92 71.10-31.36L71.10-31.36L71.10-31.36Q73.34-29.44 73.34-26.30L73.34-26.30L73.34-26.30Q73.34-15.04 53.89-15.04L53.89-15.04L53.89-15.04Q53.63-13.38 53.63-11.97L53.63-11.97L53.63-11.97Q53.63-9.02 54.94-7.90L54.94-7.90L54.94-7.90Q56.26-6.78 58.69-6.78L58.69-6.78L58.69-6.78Q61.12-6.78 63.71-7.90L63.71-7.90L63.71-7.90Q66.30-9.02 67.39-10.82ZM54.34-17.79L54.34-17.79L54.34-17.79Q58.88-17.79 61.50-20.61L61.50-20.61L61.50-20.61Q64.13-23.30 64.13-27.58L64.13-27.58L64.13-27.58Q64.13-29.06 63.58-29.86L63.58-29.86L63.58-29.86Q63.04-30.66 61.95-30.66L61.95-30.66L61.95-30.66Q60.86-30.66 59.94-30.24L59.94-30.24L59.94-30.24Q59.01-29.82 58.05-28.42L58.05-28.42L58.05-28.42Q55.68-25.22 54.34-17.79ZM102.59 1.28L102.59 1.28L102.59 1.28Q94.85 1.28 94.85-4.74L94.85-4.74L94.85-4.74Q94.91-6.40 95.42-9.22L95.42-9.22L96.58-15.10L96.58-15.10Q98.30-23.42 98.30-25.28L98.30-25.28L98.30-25.28Q98.30-28.99 96.13-28.99L96.13-28.99L96.13-28.99Q92.48-28.99 90.56-19.46L90.56-19.46L86.78 0L73.92 1.28L80.58-32.70L91.07-33.92L90.05-27.65L90.05-27.65Q93.06-33.92 102.27-33.92L102.27-33.92L102.27-33.92Q106.75-33.92 108.64-32.03L108.64-32.03L108.64-32.03Q110.53-30.14 110.53-25.92L110.53-25.92L110.53-25.92Q110.53-21.95 108.48-12.67L108.48-12.67L108.48-12.67Q107.52-8.51 107.52-6.94L107.52-6.94L107.52-6.94Q107.52-5.38 108.38-4.48L108.38-4.48L108.38-4.48Q109.25-3.58 110.53-3.46L110.53-3.46L110.53-3.46Q109.89-1.28 107.68 0L107.68 0L107.68 0Q105.47 1.28 102.59 1.28ZM116.67-6.40L116.67-6.40L116.67-6.40Q116.67-8.13 117.57-12.48L117.57-12.48L120.96-29.76L117.18-29.76L117.44-31.68L117.44-31.68Q125.12-33.98 132.54-39.62L132.54-39.62L135.62-39.62L134.08-32.64L139.07-32.64L138.50-29.76L133.57-29.76L130.30-12.48L130.30-12.48Q129.47-8.51 129.47-7.17L129.47-7.17L129.47-7.17Q129.47-4.10 132.16-3.46L132.16-3.46L132.16-3.46Q131.52-1.28 129.22 0L129.22 0L129.22 0Q126.91 1.28 123.65 1.28L123.65 1.28L123.65 1.28Q120.38 1.28 118.53-0.77L118.53-0.77L118.53-0.77Q116.67-2.82 116.67-6.40ZM141.28-1.92L141.28-1.92L141.28-1.92Q139.78-3.58 139.10-6.21L139.10-6.21L139.10-6.21Q138.43-8.83 138.43-13.12L138.43-13.12L138.43-13.12Q138.43-17.41 139.90-21.31L139.90-21.31L139.90-21.31Q141.38-25.22 144.06-28.03L144.06-28.03L144.06-28.03Q149.57-33.92 158.66-33.92L158.66-33.92L158.66-33.92Q161.92-33.92 164.29-32.83L164.29-32.83L175.23-33.92L170.50-8.96L170.50-8.96Q170.30-8.19 170.30-6.78L170.30-6.78L170.30-6.78Q170.30-5.38 171.17-4.48L171.17-4.48L171.17-4.48Q172.03-3.58 173.31-3.46L173.31-3.46L173.31-3.46Q172.67-1.28 170.34 0L170.34 0L170.34 0Q168 1.28 165.38 1.28L165.38 1.28L165.38 1.28Q162.75 1.28 160.99 0.29L160.99 0.29L160.99 0.29Q159.23-0.70 158.72-2.37L158.72-2.37L158.72-2.37Q157.70-0.77 155.52 0.26L155.52 0.26L155.52 0.26Q153.34 1.28 150.43 1.28L150.43 1.28L150.43 1.28Q147.52 1.28 145.15 0.51L145.15 0.51L145.15 0.51Q142.78-0.26 141.28-1.92ZM154.78-27.90L154.78-27.90L154.78-27.90Q154.05-26.75 153.41-24.80L153.41-24.80L153.41-24.80Q152.77-22.85 151.71-17.63L151.71-17.63L151.71-17.63Q150.66-12.42 150.66-8.70L150.66-8.70L150.66-8.70Q150.66-4.99 151.23-3.90L151.23-3.90L151.23-3.90Q151.81-2.82 152.83-2.82L152.83-2.82L152.83-2.82Q154.88-2.82 156.38-4.77L156.38-4.77L156.38-4.77Q157.89-6.72 158.46-10.18L158.46-10.18L161.86-28.93L161.86-28.93Q160.51-30.08 158.94-30.08L158.94-30.08L158.94-30.08Q157.38-30.08 156.45-29.57L156.45-29.57L156.45-29.57Q155.52-29.06 154.78-27.90ZM199.23-2.69L199.23-2.69L199.23-2.69Q196.16 1.28 188.54 1.28L188.54 1.28L188.54 1.28Q184.58 1.28 181.70-1.12L181.70-1.12L181.70-1.12Q178.82-3.52 178.82-6.98L178.82-6.98L178.82-6.98Q178.82-8.90 179.01-9.86L179.01-9.86L183.30-32.64L196.29-33.92L191.62-9.22L191.62-9.22Q191.36-7.81 191.36-6.98L191.36-6.98L191.36-6.98Q191.36-3.26 193.60-3.26L193.60-3.26L193.60-3.26Q196.10-3.26 197.89-6.66L197.89-6.66L197.89-6.66Q198.46-7.74 198.72-9.15L198.72-9.15L203.26-32.64L215.87-33.92L211.14-8.96L211.14-8.96Q210.94-8 210.94-6.98L210.94-6.98L210.94-6.98Q210.94-5.95 211.52-4.83L211.52-4.83L211.52-4.83Q212.10-3.71 213.95-3.46L213.95-3.46L213.95-3.46Q213.57-1.92 212.22-0.90L212.22-0.90L212.22-0.90Q209.41 1.28 206.37 1.28L206.37 1.28L206.37 1.28Q203.33 1.28 201.54 0.19L201.54 0.19L201.54 0.19Q199.74-0.90 199.23-2.69ZM239.36-17.98L239.36-17.98L239.36-17.98Q241.66-22.08 241.66-26.24L241.66-26.24L241.66-26.24Q241.66-28.99 239.68-28.99L239.68-28.99L239.68-28.99Q238.14-28.99 236.54-26.37L236.54-26.37L236.54-26.37Q234.88-23.74 234.37-20.35L234.37-20.35L231.04 0L217.79 1.28L224.32-32.64L234.88-33.92L233.73-27.46L233.73-27.46Q236.86-33.92 243.90-33.92L243.90-33.92L243.90-33.92Q247.62-33.92 249.63-32L249.63-32L249.63-32Q251.65-30.08 251.65-26.14L251.65-26.14L251.65-26.14Q251.65-22.21 249.06-19.71L249.06-19.71L249.06-19.71Q246.46-17.22 242.05-17.22L242.05-17.22L242.05-17.22Q240.13-17.22 239.36-17.98ZM266.62 1.28L266.62 1.28L266.62 1.28Q252.54 1.28 252.54-11.97L252.54-11.97L252.54-11.97Q252.54-21.38 257.73-27.46L257.73-27.46L257.73-27.46Q263.23-33.92 272.77-33.92L272.77-33.92L272.77-33.92Q279.68-33.92 283.20-30.72L283.20-30.72L283.20-30.72Q286.72-27.52 286.72-20.80L286.72-20.80L286.72-20.80Q286.72-10.56 281.22-4.61L281.22-4.61L281.22-4.61Q275.84 1.28 266.62 1.28ZM268.29-26.56L268.29-26.56L268.29-26.56Q267.52-24.83 266.91-22.24L266.91-22.24L266.91-22.24Q266.30-19.65 265.54-15.55L265.54-15.55L265.54-15.55Q264.77-11.46 264.77-6.40L264.77-6.40L264.77-6.40Q264.77-4.74 265.31-3.65L265.31-3.65L265.31-3.65Q265.86-2.56 267.33-2.56L267.33-2.56L267.33-2.56Q268.80-2.56 269.73-3.26L269.73-3.26L269.73-3.26Q270.66-3.97 271.36-5.63L271.36-5.63L271.36-5.63Q272.64-8.58 273.66-14.05L273.66-14.05L273.66-14.05Q274.69-19.52 274.78-21.89L274.78-21.89L274.78-21.89Q274.88-24.26 274.88-26.02L274.88-26.02L274.88-26.02Q274.88-27.78 274.37-28.93L274.37-28.93L274.37-28.93Q273.86-30.08 272.42-30.08L272.42-30.08L272.42-30.08Q270.98-30.08 270.02-29.18L270.02-29.18L270.02-29.18Q269.06-28.29 268.29-26.56Z" fill="#ccc"></path></g></g><style>text {
  font-size: 64px;
  font-family: Arial Black;
  dominant-baseline: central;
  text-anchor: middle;
}</style></svg>

