<svg width="406.20001220703125px" height="124.439990234375px" xmlns="http://www.w3.org/2000/svg" viewBox="46.899993896484375 12.780004882812499 406.20001220703125 124.439990234375" style="background: rgb(0, 0, 0);" preserveAspectRatio="xMidYMid"><defs><filter id="editing-hover" x="-100%" y="-100%" width="300%" height="300%"><feFlood flood-color="#052b4a" result="flood"></feFlood><feComposite operator="in" in2="SourceAlpha" in="flood" result="shadow"></feComposite><feOffset dx="-4" dy="-4" in="SourceGraphic" result="offset-1"></feOffset><feOffset dx="4" dy="4" in="shadow" result="offset-2"></feOffset><feMerge><feMergeNode in="offset-2"></feMergeNode><feMergeNode in="offset-1"></feMergeNode></feMerge></filter></defs><g filter="url(#editing-hover)"><g transform="translate(109.70999538898468, 95.44999885559082)"><path d="M32.51-26.62L32.51-26.62L32.51-26.62Q32.51-23.94 30.27-22.27L30.27-22.27L30.27-22.27Q28.03-20.61 24.38-20.61L24.38-20.61L24.38-20.61Q22.85-20.61 21.95-21.06L21.95-21.06L21.95-21.06Q22.66-22.72 22.88-24.80L22.88-24.80L22.88-24.80Q23.10-26.88 23.10-27.46L23.10-27.46L23.10-27.46Q23.10-30.14 21.25-30.14L21.25-30.14L21.25-30.14Q19.97-30.14 18.53-28.54L18.53-28.54L18.53-28.54Q17.09-26.94 15.87-24.45L15.87-24.45L15.87-24.45Q13.18-18.69 13.18-12.86L13.18-12.86L13.18-12.86Q13.18-9.66 14.40-8.22L14.40-8.22L14.40-8.22Q15.62-6.78 18.30-6.78L18.30-6.78L18.30-6.78Q22.02-6.78 24.96-9.86L24.96-9.86L24.96-9.86Q25.79-10.82 26.24-11.90L26.24-11.90L26.24-11.90Q28.67-10.62 28.67-7.10L28.67-7.10L28.67-7.10Q28.67-3.52 24.70-1.15L24.70-1.15L24.70-1.15Q20.61 1.28 14.08 1.28L14.08 1.28L14.08 1.28Q1.09 1.28 1.09-12.48L1.09-12.48L1.09-12.48Q1.09-22.53 6.78-28.29L6.78-28.29L6.78-28.29Q12.29-33.92 22.40-33.92L22.40-33.92L22.40-33.92Q32.51-33.92 32.51-26.62ZM60.16-10.82L60.16-10.82L60.16-10.82Q61.76-9.73 61.76-7.33L61.76-7.33L61.76-7.33Q61.76-4.93 60.54-3.39L60.54-3.39L60.54-3.39Q59.33-1.86 57.34-0.83L57.34-0.83L57.34-0.83Q53.25 1.28 48.83 1.28L48.83 1.28L48.83 1.28Q44.42 1.28 41.82 0.32L41.82 0.32L41.82 0.32Q39.23-0.64 37.50-2.43L37.50-2.43L37.50-2.43Q34.11-5.82 34.11-12.03L34.11-12.03L34.11-12.03Q34.11-21.70 39.36-27.58L39.36-27.58L39.36-27.58Q44.99-33.92 54.78-33.92L54.78-33.92L54.78-33.92Q60.86-33.92 63.87-31.36L63.87-31.36L63.87-31.36Q66.11-29.44 66.11-26.30L66.11-26.30L66.11-26.30Q66.11-15.04 46.66-15.04L46.66-15.04L46.66-15.04Q46.40-13.38 46.40-11.97L46.40-11.97L46.40-11.97Q46.40-9.02 47.71-7.90L47.71-7.90L47.71-7.90Q49.02-6.78 51.46-6.78L51.46-6.78L51.46-6.78Q53.89-6.78 56.48-7.90L56.48-7.90L56.48-7.90Q59.07-9.02 60.16-10.82ZM47.10-17.79L47.10-17.79L47.10-17.79Q51.65-17.79 54.27-20.61L54.27-20.61L54.27-20.61Q56.90-23.30 56.90-27.58L56.90-27.58L56.90-27.58Q56.90-29.06 56.35-29.86L56.35-29.86L56.35-29.86Q55.81-30.66 54.72-30.66L54.72-30.66L54.72-30.66Q53.63-30.66 52.70-30.24L52.70-30.24L52.70-30.24Q51.78-29.82 50.82-28.42L50.82-28.42L50.82-28.42Q48.45-25.22 47.10-17.79ZM95.36 1.28L95.36 1.28L95.36 1.28Q87.62 1.28 87.62-4.74L87.62-4.74L87.62-4.74Q87.68-6.40 88.19-9.22L88.19-9.22L89.34-15.10L89.34-15.10Q91.07-23.42 91.07-25.28L91.07-25.28L91.07-25.28Q91.07-28.99 88.90-28.99L88.90-28.99L88.90-28.99Q85.25-28.99 83.33-19.46L83.33-19.46L79.55 0L66.69 1.28L73.34-32.70L83.84-33.92L82.82-27.65L82.82-27.65Q85.82-33.92 95.04-33.92L95.04-33.92L95.04-33.92Q99.52-33.92 101.41-32.03L101.41-32.03L101.41-32.03Q103.30-30.14 103.30-25.92L103.30-25.92L103.30-25.92Q103.30-21.95 101.25-12.67L101.25-12.67L101.25-12.67Q100.29-8.51 100.29-6.94L100.29-6.94L100.29-6.94Q100.29-5.38 101.15-4.48L101.15-4.48L101.15-4.48Q102.02-3.58 103.30-3.46L103.30-3.46L103.30-3.46Q102.66-1.28 100.45 0L100.45 0L100.45 0Q98.24 1.28 95.36 1.28ZM109.44-6.40L109.44-6.40L109.44-6.40Q109.44-8.13 110.34-12.48L110.34-12.48L113.73-29.76L109.95-29.76L110.21-31.68L110.21-31.68Q117.89-33.98 125.31-39.62L125.31-39.62L128.38-39.62L126.85-32.64L131.84-32.64L131.26-29.76L126.34-29.76L123.07-12.48L123.07-12.48Q122.24-8.51 122.24-7.17L122.24-7.17L122.24-7.17Q122.24-4.10 124.93-3.46L124.93-3.46L124.93-3.46Q124.29-1.28 121.98 0L121.98 0L121.98 0Q119.68 1.28 116.42 1.28L116.42 1.28L116.42 1.28Q113.15 1.28 111.30-0.77L111.30-0.77L111.30-0.77Q109.44-2.82 109.44-6.40ZM134.05-1.92L134.05-1.92L134.05-1.92Q132.54-3.58 131.87-6.21L131.87-6.21L131.87-6.21Q131.20-8.83 131.20-13.12L131.20-13.12L131.20-13.12Q131.20-17.41 132.67-21.31L132.67-21.31L132.67-21.31Q134.14-25.22 136.83-28.03L136.83-28.03L136.83-28.03Q142.34-33.92 151.42-33.92L151.42-33.92L151.42-33.92Q154.69-33.92 157.06-32.83L157.06-32.83L168-33.92L163.26-8.96L163.26-8.96Q163.07-8.19 163.07-6.78L163.07-6.78L163.07-6.78Q163.07-5.38 163.94-4.48L163.94-4.48L163.94-4.48Q164.80-3.58 166.08-3.46L166.08-3.46L166.08-3.46Q165.44-1.28 163.10 0L163.10 0L163.10 0Q160.77 1.28 158.14 1.28L158.14 1.28L158.14 1.28Q155.52 1.28 153.76 0.29L153.76 0.29L153.76 0.29Q152.00-0.70 151.49-2.37L151.49-2.37L151.49-2.37Q150.46-0.77 148.29 0.26L148.29 0.26L148.29 0.26Q146.11 1.28 143.20 1.28L143.20 1.28L143.20 1.28Q140.29 1.28 137.92 0.51L137.92 0.51L137.92 0.51Q135.55-0.26 134.05-1.92ZM147.55-27.90L147.55-27.90L147.55-27.90Q146.82-26.75 146.18-24.80L146.18-24.80L146.18-24.80Q145.54-22.85 144.48-17.63L144.48-17.63L144.48-17.63Q143.42-12.42 143.42-8.70L143.42-8.70L143.42-8.70Q143.42-4.99 144.00-3.90L144.00-3.90L144.00-3.90Q144.58-2.82 145.60-2.82L145.60-2.82L145.60-2.82Q147.65-2.82 149.15-4.77L149.15-4.77L149.15-4.77Q150.66-6.72 151.23-10.18L151.23-10.18L154.62-28.93L154.62-28.93Q153.28-30.08 151.71-30.08L151.71-30.08L151.71-30.08Q150.14-30.08 149.22-29.57L149.22-29.57L149.22-29.57Q148.29-29.06 147.55-27.90ZM192.00-2.69L192.00-2.69L192.00-2.69Q188.93 1.28 181.31 1.28L181.31 1.28L181.31 1.28Q177.34 1.28 174.46-1.12L174.46-1.12L174.46-1.12Q171.58-3.52 171.58-6.98L171.58-6.98L171.58-6.98Q171.58-8.90 171.78-9.86L171.78-9.86L176.06-32.64L189.06-33.92L184.38-9.22L184.38-9.22Q184.13-7.81 184.13-6.98L184.13-6.98L184.13-6.98Q184.13-3.26 186.37-3.26L186.37-3.26L186.37-3.26Q188.86-3.26 190.66-6.66L190.66-6.66L190.66-6.66Q191.23-7.74 191.49-9.15L191.49-9.15L196.03-32.64L208.64-33.92L203.90-8.96L203.90-8.96Q203.71-8 203.71-6.98L203.71-6.98L203.71-6.98Q203.71-5.95 204.29-4.83L204.29-4.83L204.29-4.83Q204.86-3.71 206.72-3.46L206.72-3.46L206.72-3.46Q206.34-1.92 204.99-0.90L204.99-0.90L204.99-0.90Q202.18 1.28 199.14 1.28L199.14 1.28L199.14 1.28Q196.10 1.28 194.30 0.19L194.30 0.19L194.30 0.19Q192.51-0.90 192.00-2.69ZM232.13-17.98L232.13-17.98L232.13-17.98Q234.43-22.08 234.43-26.24L234.43-26.24L234.43-26.24Q234.43-28.99 232.45-28.99L232.45-28.99L232.45-28.99Q230.91-28.99 229.31-26.37L229.31-26.37L229.31-26.37Q227.65-23.74 227.14-20.35L227.14-20.35L223.81 0L210.56 1.28L217.09-32.64L227.65-33.92L226.50-27.46L226.50-27.46Q229.63-33.92 236.67-33.92L236.67-33.92L236.67-33.92Q240.38-33.92 242.40-32L242.40-32L242.40-32Q244.42-30.08 244.42-26.14L244.42-26.14L244.42-26.14Q244.42-22.21 241.82-19.71L241.82-19.71L241.82-19.71Q239.23-17.22 234.82-17.22L234.82-17.22L234.82-17.22Q232.90-17.22 232.13-17.98ZM259.39 1.28L259.39 1.28L259.39 1.28Q245.31 1.28 245.31-11.97L245.31-11.97L245.31-11.97Q245.31-21.38 250.50-27.46L250.50-27.46L250.50-27.46Q256.00-33.92 265.54-33.92L265.54-33.92L265.54-33.92Q272.45-33.92 275.97-30.72L275.97-30.72L275.97-30.72Q279.49-27.52 279.49-20.80L279.49-20.80L279.49-20.80Q279.49-10.56 273.98-4.61L273.98-4.61L273.98-4.61Q268.61 1.28 259.39 1.28ZM261.06-26.56L261.06-26.56L261.06-26.56Q260.29-24.83 259.68-22.24L259.68-22.24L259.68-22.24Q259.07-19.65 258.30-15.55L258.30-15.55L258.30-15.55Q257.54-11.46 257.54-6.40L257.54-6.40L257.54-6.40Q257.54-4.74 258.08-3.65L258.08-3.65L258.08-3.65Q258.62-2.56 260.10-2.56L260.10-2.56L260.10-2.56Q261.57-2.56 262.50-3.26L262.50-3.26L262.50-3.26Q263.42-3.97 264.13-5.63L264.13-5.63L264.13-5.63Q265.41-8.58 266.43-14.05L266.43-14.05L266.43-14.05Q267.46-19.52 267.55-21.89L267.55-21.89L267.55-21.89Q267.65-24.26 267.65-26.02L267.65-26.02L267.65-26.02Q267.65-27.78 267.14-28.93L267.14-28.93L267.14-28.93Q266.62-30.08 265.18-30.08L265.18-30.08L265.18-30.08Q263.74-30.08 262.78-29.18L262.78-29.18L262.78-29.18Q261.82-28.29 261.06-26.56Z" fill="#ffd5af"></path></g></g><style>text {
  font-size: 64px;
  font-family: Arial Black;
  dominant-baseline: central;
  text-anchor: middle;
}</style></svg>